{
  "title": "The Jungle Book (2016) DVDRip XviD-MAXSPEED",
  "uid": 15498780,
  "size": 1767326992,
  "categoryP": "video",
  "categoryS": "movies",
  "magnet": "?xt=urn:btih:24a04eb0e7465c4d81d677f04e1d827e0bb1e153&amp;dn=The+Jungle+Book+%282016%29+DVDRip+XviD-MAXSPEED&amp;tr=udp%3A%2F%2Ftracker.leechers-paradise.org%3A6969&amp;tr=udp%3A%2F%2Fzer0day.ch%3A1337&amp;tr=udp%3A%2F%2Fopen.demonii.com%3A1337&amp;tr=udp%3A%2F%2Ftracker.coppersurfer.tk%3A6969&amp;tr=udp%3A%2F%2Fexodus.desync.com%3A6969",
  "seeders": 64,
  "leechers": 15,
  "uploader": "extremezone",
  "files": 4,
  "time": 1470468654,
  "description": "http://extraimago.com/images/2016/08/06/b031d3a1b13074b1c88f440dbed51597.jpg\r\n\r\nScreens:\r\n \nhttp://extraimago.com/images/2016/08/06/f2ee15f1b1251aa37ca8828027997580.jpg \nhttp://extraimago.com/images/2016/08/06/a5c81d5fefbad33286bb17f5a36e98d1.jpg \nhttp://extraimago.com/images/2016/08/06/743070e5ea929c219e8ef287f3c83827.jpg \nhttp://extraimago.com/images/2016/08/06/b03845f03e8417d522a196a265b664dc.jpg\r\n\r\nScreenCaps:\r\n \nhttp://extraimago.com/images/2016/08/06/46ad27fc107f8ddb00834e43ee5b848e.jpg\r\n\r\nThe Jungle Book (2016) DVDRip XviD-MAXSPEED\r\nFormat                                   : AVI\r\nFormat/Info                              : Audio Video Interleave\r\nFormat profile                           : OpenDML\r\nFormat settings                          : rec\r\nFile size                                : 1.64 GiB\r\nDuration                                 : 1h 41mn\r\nOverall bit rate                         : 2 306 Kbps\r\nWriting application                      : VirtualDubMod 1.5.10.2 (build 2542/release)\r\nWriting library                          : VirtualDubMod build 2542/release\r\nOriginal source form                     : MAX TORRENTZ\r\nCopyright                                : SIGISMUNT\r\n\r\nVideo\r\nID                                       : 0\r\nFormat                                   : MPEG-4 Visual\r\nFormat profile                           : Advanced   \r\nFormat settings, BVOP                    : 4\r\nFormat settings, QPel                    : No\r\nFormat settings, GMC                     : No warppoints\r\nFormat settings, Matrix                  : Default (MPEG)\r\nCodec ID                                 : XVID\r\nCodec ID/Hint                            : XviD\r\nDuration                                 : 1h 41mn\r\nBit rate                                 : 1 853 Kbps\r\nWidth                                    : 720 pixels\r\nHeight                                   : 384 pixels\r\nDisplay aspect ratio                     : 1.85:1\r\nFrame rate                               : 25.000 fps\r\nColor space                              : YUV\r\nChroma subsampling                       : 4:2:0\r\nBit depth                                : 8 bits\r\nScan type                                : Progressive\r\nCompression mode                         : Lossy\r\nBits/(Pixel*Frame)                       : 0.268\r\nStream size                              : 1.31 GiB (80%)\r\nWriting library                          : XviD 1.2.1 (UTC 2008-12-04)\r\n\r\nAudio\r\nID                                       : 1\r\nFormat                                   : AC-3\r\nFormat/Info                              : Audio Coding 3\r\nMode extension                           : CM (complete main)\r\nFormat settings, Endianness              : Big\r\nCodec ID                                 : 2000\r\nDuration                                 : 1h 41mn\r\nBit rate mode                            : Constant\r\nBit rate                                 : 448 Kbps\r\nChannel(s)                               : 6 channels\r\nChannel positions                        : Front: L C R, Side: L R, LFE\r\nSampling rate                            : 48.0 KHz\r\nBit depth                                : 16 bits\r\nCompression mode                         : Lossy\r\nStream size                              : 325 MiB (19%)\r\nAlignment                                : Aligned on interleaves\r\nInterleave, duration                     : 64 ms (1.60 video frames)\r\nInterleave, preload duration             : 192 ms\r\n\r\nSource: DVD (clean encode/source, perfect a/v/sync quality,sample included)\r\nThis torrent is not seedbox supported,please seed it to the MAX\r\n\r\nUploader Note: If you think image it's a little dark on your device then\r\nVLC-&gt;Ctrl+E-&gt;Video Effects-&gt;Image adjust-&gt;Brightness-&gt;Close, simple as 1,2,3\r\nso no more complaints about this please,thank you\r\n\r\nNote: If you have something as early releases, seedboxes  http://torentz.3xforum.ro",
  "parsed": {
    "xt": "urn:btih:24a04eb0e7465c4d81d677f04e1d827e0bb1e153",
    "dn": "The Jungle Book (2016) DVDRip XviD-MAXSPEED",
    "tr": [
      "udp://exodus.desync.com:6969",
      "udp://open.demonii.com:1337",
      "udp://tracker.coppersurfer.tk:6969",
      "udp://tracker.leechers-paradise.org:6969",
      "udp://zer0day.ch:1337"
    ],
    "infoHash": "24a04eb0e7465c4d81d677f04e1d827e0bb1e153",
    "infoHashBuffer": {
      "type": "Buffer",
      "data": [
        36,
        160,
        78,
        176,
        231,
        70,
        92,
        77,
        129,
        214,
        119,
        240,
        78,
        29,
        130,
        126,
        11,
        177,
        225,
        83
      ]
    },
    "name": "The Jungle Book (2016) DVDRip XviD-MAXSPEED",
    "announce": [
      "udp://exodus.desync.com:6969",
      "udp://open.demonii.com:1337",
      "udp://tracker.coppersurfer.tk:6969",
      "udp://tracker.leechers-paradise.org:6969",
      "udp://zer0day.ch:1337"
    ],
    "urlList": []
  },
  "previous": 56,
  "peers": 54,
  "last_updated": "2016-12-26T19:05:53.202Z"
}